<?xml version="1.0" encoding="utf-8"?>
<!-- Generator: Adobe Illustrator 19.2.1, SVG Export Plug-In . SVG Version: 6.00 Build 0)  -->
<!DOCTYPE svg PUBLIC "-//W3C//DTD SVG 1.1//EN" "http://www.w3.org/Graphics/SVG/1.1/DTD/svg11.dtd">
<svg version="1.1" id="Layer_1" xmlns="http://www.w3.org/2000/svg" xmlns:xlink="http://www.w3.org/1999/xlink" x="0px" y="0px"
	 viewBox="0 0 799.6 237.7" enable-background="new 0 0 799.6 237.7" xml:space="preserve">
<g>
	<g>
		<path fill="#FFFFFF" d="M452.3,101.6l2.6-1.6c3.4-2.1,4.8-3.2,7.5-5.1c2.3-1.6,4-3,5-4.3c2-2.5,4.2-4.6,4.2-8.3
			c0-4.1-1.4-7.5-4.2-10.1c-2.8-2.6-6.5-3.9-11.2-3.9c-4.3,0-7.9,1.3-10.8,4c-2.9,2.5-4.4,5.7-4.4,9.7c0,4.6,1.8,7.9,5.5,12.3l4.8,6
			C451.5,100.7,451.7,100.9,452.3,101.6z"/>
		<path fill="#FFFFFF" d="M516.1,78.2c0.9-1.1,1.4-2.5,1.4-4.2c0-1.9-0.6-3.4-1.9-4.6c-1.3-1.2-2.9-1.7-5.1-1.7
			c-1.9,0-3.6,0.6-4.9,1.8c-1.3,1.1-2,2.6-2,4.4c0,2.1,0.8,4.1,2.5,6.2l2.7,3.2c0.1,0.2,0.3,0.4,0.6,0.7l0.9-0.6
			c1.5-1.1,2.7-2.1,3.7-3C515,79.5,515.7,78.8,516.1,78.2z"/>
		<path fill="#FFFFFF" d="M506.5,98c-4.4,3-7.4,5.5-9,7.3c-1.6,1.8-2.3,3.8-2.3,5.8c0,2.9,1.2,5.6,3.5,8.1c2.5,2.4,5.2,3.5,8.1,3.5
			c4.1,0,8.9-2.7,14.3-8.1l-14-17.1L506.5,98z"/>
		<path fill="#FFFFFF" d="M532.3,110.9c0.2,0,0.5-0.1,0.6-0.3l5-6.5c0.3-0.4,0.2-0.9-0.2-1.1c-0.4-0.3-0.9-0.2-1.1,0.2l-5,6.5
			c-0.3,0.4-0.2,0.9,0.2,1.1C531.9,110.8,532.1,110.9,532.3,110.9z"/>
		<path fill="#FFFFFF" d="M522.2,119.5c-6.6,8-20.7,24.5-30.9,35.2l-39.1-45c2-1.4,4.1-2.7,6.2-4.1c3.3-2.2,6.7-4.4,9.9-6.6
			c16.4-11.1,9.6-24.3,7.2-28c-3.6-5.5-11.1-9-19.2-9c-6.2,0-13.4,2.9-17,6.9c-7.5,8.4-6.2,20-1.1,27.1l11.6,13.4
			c-8.3,5.6-15.7,10.8-20,14.8c-4.2,3.9-9.1,11.6-9.3,20.6c-0.2,7.2,2.7,13.9,8.5,19.7c5.1,5.1,14.9,10.2,25.8,10.2
			c0.4,0,0.7,0,1.1,0c13.6-0.4,22-5.8,27.8-10.5c1.9-1.6,4.6-4.1,7.5-7.1l12.8,14.8c0.3,0.3,0.8,0.4,1.1,0.1
			c0.3-0.3,0.4-0.8,0.1-1.1l-12.9-14.9c10.2-10.6,24.2-27,31.1-35.4c0.3-0.3,0.2-0.9-0.1-1.1C523,119.1,522.4,119.1,522.2,119.5z
			 M439.4,94.9c-4.7-6.6-5.9-17.3,1-25.1c3.3-3.7,10-6.4,15.8-6.4c7.6,0,14.6,3.2,17.8,8.3c2.3,3.5,8.4,15.5-6.7,25.8
			c-3.2,2.2-6.6,4.4-9.9,6.6c-2.2,1.4-4.3,2.8-6.4,4.2L439.4,94.9z M482.6,162.9c-5.6,4.5-13.8,9.7-26.9,10.2
			c-10.8,0.4-20.7-4.6-25.7-9.7c-5.4-5.5-8.1-11.8-8-18.5c0.2-8.5,4.8-15.8,8.8-19.5c4.3-4,11.6-9.2,20-14.8l39.3,45.2
			C487.2,158.8,484.6,161.3,482.6,162.9z"/>
		<path fill="#FFFFFF" d="M433.1,131.6c-3,3.5-4.8,8.1-4.8,12c0,5.6,1.3,9.9,5.8,14.5c4.7,4.5,12.7,9.4,20.5,9.4
			c7.9,0,18.1-1.5,28.4-11.8l-32.8-38.1C441.8,123.4,436.1,128.1,433.1,131.6z"/>
		<path fill="#FFFFFF" d="M170.4,70.8c-5.2,0-9.6,4.2-9.6,9.4v78.5c0,5.1,4.3,9.2,9.6,9.2c5.1,0,9.4-4.2,9.4-9.2V80.3
			C179.8,75,175.4,70.8,170.4,70.8z"/>
		<path fill="#FFFFFF" d="M377.9,64.1c-8.9,0-16.1,7.2-16.1,16.1v93.9c0,0.4,0,0.7,0.3,0.7h0.4c0.5,0,1.3-0.3,1.3-0.7V80.3
			c0-7.8,6.2-14.1,14-14.1c7.8,0,14,6.3,14,14.1v93.9c0,0.4,0,0.7,0.6,0.7h0.4c0.4,0,1.1-0.3,1.1-0.7V80.3
			C393.8,71.4,386.7,64.1,377.9,64.1z"/>
		<path fill="#FFFFFF" d="M169.9,64.1c-8.9,0-16.1,7.2-16.1,16.1v78.5c0,8.9,7.2,16.1,16.1,16.1c8.9,0,15.9-7.2,15.9-16.1V80.3
			C185.8,71.4,178.7,64.1,169.9,64.1z M184.8,158.8c0,7.8-6.7,14.1-14.5,14.1c-7.8,0-14.5-6.3-14.5-14.1V80.3
			c0-7.8,6.7-14.1,14.5-14.1c7.8,0,14.5,6.3,14.5,14.1V158.8z"/>
		<path fill="#FFFFFF" d="M331.4,63.8h-18.8c-0.5,0-0.8,0.7-0.8,1.2v108.7c0,0.5,0.2,1,0.8,1h18.8c0.4,0,0.4-0.3,0.4-0.7v-0.5
			c0-0.4-0.1-0.8-0.4-0.8h-17.6v-52h17.6c0.4,0,0.4-0.8,0.4-1.1v-0.5c0-0.4-0.1-0.3-0.4-0.3h-17.6v-53h17.6c0.4,0,0.4-0.1,0.4-0.4
			v-0.5C331.8,64.5,331.7,63.8,331.4,63.8z"/>
		<path fill="#FFFFFF" d="M266.4,64.1c-6.9,0-13,4.3-15.1,10.7c-2.2-6.3-8.3-10.7-15.2-10.7c-8.9,0-16.3,7.2-16.3,16.1V174
			c0,0.5,0.7,0.9,1,0.9h0.4c0.5,0,0.6-0.3,0.6-0.9V80.3c0-7.8,6.7-14.1,14.5-14.1c7.8,0,14.5,6.3,14.5,14.1V174
			c0,0.5-0.1,0.9,0.2,0.9h0.4c0.4,0,0.4-0.3,0.4-0.9V80.3c0-7.8,6.7-14.1,14.5-14.1c7.8,0,14.5,6.3,14.5,14.1v93.9
			c0,0.4-0.1,0.7,0.5,0.7h0.4c0.4,0,1.2-0.3,1.2-0.7V80.3C282.8,71.4,275.3,64.1,266.4,64.1z"/>
		<path fill="#FFFFFF" d="M126.9,63.8h-0.4c-0.4,0-0.8,0.7-0.8,1v84.3c0,0,0,3.8-1.8,6.9l-9.6,16.8H109L99.5,156
			c-1.6-2.7-1.7-5.8-1.7-6.7v-0.2V64.9c0-0.4-0.6-1-0.9-1h-0.4c-0.5,0-0.7,0.7-0.7,1v84.3v0.2c0,0.9-0.3,4-1.9,6.7l-9.7,16.8h-5.2
			L69.4,156c-1.6-3.1-1.6-6.9-1.6-6.9V64.9c0-0.4-0.6-1-1.1-1h-0.4c-0.4,0-0.5,0.7-0.5,1v84.3c0,0.2-0.1,4.3,1.9,7.8l9.9,17.4
			c0.2,0.4,0.5,0.5,0.9,0.5h6.3c0.4,0,0.7-0.2,0.9-0.5l10-17.4c0.4-0.7,0.7-1.6,1.1-2.3c0.2,0.7,0.5,1.6,1.1,2.4l9.8,17.4
			c0.2,0.4,0.5,0.5,0.9,0.5h6.5c0.4,0,0.7-0.2,0.9-0.5l9.8-17.4c2.2-3.4,2.2-7.6,2.2-7.8V64.9C127.8,64.5,127.4,63.8,126.9,63.8z"/>
		<path fill="#FFFFFF" d="M660.9,64c-8.9,0-16.1,7.2-16.1,16.1v78.7c0,8.9,7.2,15.9,16.1,15.9c8.9,0,15.9-7.1,15.9-15.9v-4
			c0-0.5-0.5-1-0.9-1h-0.4c-0.5,0-0.8,0.4-0.8,1v4c0,7.8-6.2,14.1-14,14.1c-7.8,0-14-6.3-14-14.1V80.1c0-7.8,6.2-14.1,14-14.1
			c7.8,0,14,6.3,14,14.1v3.4c0,0.4,0.2,0.3,0.8,0.3h0.4c0.4,0,0.9,0,0.9-0.3v-3.4C676.8,71.2,669.7,64,660.9,64z"/>
		<path fill="#FFFFFF" d="M732.7,63.8h-0.5c-0.4,0-0.4,0.7-0.4,1v54h-29v-54c0-0.4,0.1-1-0.3-1h-0.4c-0.5,0-1.4,0.7-1.4,1v109.3
			c0,0.4,0.8,0.7,1.4,0.7h0.4c0.4,0,0.3-0.3,0.3-0.7v-53.3h29v53.3c0,0.4,0,0.7,0.4,0.7h0.5c0.4,0,1.1-0.3,1.1-0.7V64.9
			C733.8,64.5,733.1,63.8,732.7,63.8z"/>
		<path fill="#FFFFFF" d="M572.2,63.8h-22.4c-0.4,0-1,0.7-1,1v0.5c0,0.4,0.6,0.4,1,0.4h10v108.3c0,0.4,0.7,0.7,1,0.7h0.4
			c0.5,0,0.6-0.3,0.6-0.7V65.8h10.4c0.4,0,0.6-0.1,0.6-0.4v-0.5C572.8,64.5,572.6,63.8,572.2,63.8z"/>
		<path fill="#FFFFFF" d="M617.5,63.8h-18.8c-0.5,0-0.9,0.7-0.9,1.2v108.7c0,0.5,0.3,1,0.9,1h18.8c0.4,0,0.3-0.3,0.3-0.7v-0.5
			c0-0.4,0-0.8-0.3-0.8h-17.7v-52h17.7c0.4,0,0.3-0.8,0.3-1.1v-0.5c0-0.4,0-0.3-0.3-0.3h-17.7v-53h17.7c0.4,0,0.3-0.1,0.3-0.4v-0.5
			C617.8,64.5,617.8,63.8,617.5,63.8z"/>
		<path fill="#FFFFFF" d="M510,90.7c1.1-0.8,2.3-1.7,3.5-2.6l4.2-3.1c7.4-5.4,7.5-12.9,4.4-17.6c-2-3.1-6-5-10.6-5.2
			c-4.3-0.2-8.4,2.1-10.4,4.3c-4.7,5.3-3.1,13,0.1,16.2l6.4,7.7c-4.7,3.4-8.7,6.4-11.4,8.3c-2.8,2.1-6.1,6.9-6.6,12.2
			c-0.4,4.5,1.1,8.6,4.4,12.2c3.3,3.6,7.3,5.7,11.9,5.7c0,0,0,0,0,0c0.4,0,0.8-0.4,0.8-0.8c0-0.4-0.3-0.8-0.8-0.8
			c-4.1-0.1-7.7-1.8-10.7-5.1c-3-3.3-4.4-7-4-11c0.5-5.2,3.8-9.5,6-11.1c2.6-2,6.7-4.9,11.4-8.4l29.9,36.1c0.3,0.3,0.8,0.4,1.1,0.1
			c0.3-0.3,0.4-0.8,0.1-1.1L510,90.7z M502.5,81.6c-2.8-2.8-4.2-9.4-0.1-14c1.7-1.9,5.2-3.8,8.7-3.8c0.1,0,0.2,0,0.4,0
			c4.1,0.2,7.6,1.8,9.3,4.5c2.8,4.2,2.6,10.6-4,15.4l-4.2,3.1c-1.2,0.9-2.5,1.8-3.6,2.6L502.5,81.6z"/>
		<path fill="#FFFFFF" d="M27.8,27.8v181h744v-181H27.8z M132.8,149.4c0,4.2-1.4,8.1-3.6,11.6l-9.8,17.3c-0.5,0.9-1.5,1.6-2.6,1.6
			h-10.1c-1.1,0-2-0.7-2.5-1.6L96.7,165l-7.6,13.3c-0.5,0.9-1.4,1.5-2.5,1.5h-10c-1.1,0-2.2-0.7-2.5-1.6L64.3,161
			c-2.4-3.4-3.6-7.5-3.6-11.6v-87c0-1.6,1.2-2.5,2.8-2.5h5.8c1.6,0,2.4,0.9,2.4,2.5v87c0,1.1,0.4,2,0.8,2.9l8.8,15.6l8.9-15.6
			c0.4-0.9,0.5-1.8,0.5-2.9v-87c0-1.6,1.4-2.5,3-2.5h5.8c1.6,0,3.2,0.9,3.2,2.5v87c0,1.1,0,2,0.4,2.9l8.6,15.6l8.8-15.6
			c0.2-0.9,0.2-1.8,0.2-2.9v-87c0-1.6,1.6-2.5,3-2.5h5.8c1.6,0,3.2,0.9,3.2,2.5V149.4z M190.8,158.8c0,11.6-9,20.8-20.4,20.8
			c-11.6,0-20.6-9.2-20.6-20.8V80.3c0-11.6,9-21,20.6-21c11.4,0,20.4,9.4,20.4,21V158.8z M286.8,176.7c0,1.6-1,3.2-2.5,3.2h-5.8
			c-1.6,0-2.7-1.5-2.7-3.2V80.3c0-5.2-4.3-9.4-9.6-9.4c-5.1,0-9.4,4.2-9.4,9.4v96.4c0,1.6-1.1,3.2-2.7,3.2h-5.8
			c-1.6,0-2.5-1.5-2.5-3.2V80.3c0-5.2-4.3-9.4-9.4-9.4c-5.2,0-9.6,4.2-9.6,9.4v96.4c0,1.6-1.3,3.2-2.9,3.2h-5.8
			c-1.4,0-3.3-1.5-3.3-3.2V80.3c0-11.6,9.6-21,21.2-21c5.8,0,11.3,2.5,15.1,6.5c3.8-4,9.1-6.5,14.9-6.5c11.6,0,20.8,9.4,20.8,21
			V176.7z M336.8,67.9c0,1.6-1.1,2.9-2.7,2.9h-15.3v43h15.3c1.6,0,2.7,1.1,2.7,2.8v5.8c0,1.4-1.1,2.4-2.7,2.4h-15.3v43h15.3
			c1.6,0,2.7,1.6,2.7,3.1v5.8c0,1.6-1.1,3.2-2.7,3.2h-21.5c-3.3,0-5.8-2.8-5.8-6V65.1c0-3.1,2.5-6.2,5.8-6.2h21.5
			c1.6,0,2.7,1.9,2.7,3.3V67.9z M398.8,176.7c0,1.6-1.7,3.2-3.4,3.2h-5.8c-1.6,0-2.8-1.5-2.8-3.2V80.3c0-5.2-4.3-9.4-9.4-9.4
			c-5.2,0-9.6,4.2-9.6,9.4v96.4c0,1.6-1,3.2-2.6,3.2h-5.8c-1.6,0-2.6-1.5-2.6-3.2V80.3c0-11.6,9.5-21,21.1-21
			c11.4,0,20.9,9.4,20.9,21V176.7z M543.9,130.8c-1.7,0-5.5,0-7.4,0c-1,0-2.2-0.6-3.3-1.9c-0.5-0.6-3.9-4.5-5.2-6
			c-5.2,6.3-18.3,21.6-20.2,23.9c-2.3,2.7-5,5.7-8.2,9.2c0,0,11.9,13.4,13.8,15.8c2.2,2.8,0.2,5.1-2.6,5.1c-2.8,0-5.2,0-8.2,0
			c-1.7,0-3.6-1.3-5.4-3.4c-1.1-1.3-6.5-8.3-6.5-8.3c-10.7,11-23.4,15.1-34.9,15.1c-10.3,0-25.4-5.4-31.7-12.5
			c-6.4-7.3-9.7-13.5-9.7-23.2c0-11.6,6.4-22.6,17.6-30.3l7-4.9c0.1-0.1,1.8-1.1,2.2-1.5c-7.7-8.2-12.8-16.3-12.8-24.2
			c0-7.8,2.6-14.2,7.7-19.1c5.2-4.9,12-7.4,20.2-7.4c8,0,14.6,2.4,19.8,7.2c5.2,4.8,7.8,10.8,7.8,18.1c0,5-1.4,9.6-4.3,13.6
			c-2.8,4.1-10.6,8.9-18,14.6l30.4,35.8c0,0,9-10.3,12.3-14.2c-5-0.5-9.4-2.5-13.1-5.9c-4.3-4-6.4-9-6.4-15c0-7.1,3.4-13,10.2-17.7
			l4.6-3.2c0.1,0,0.2-0.1,0.3-0.2c0.2-0.1,0.4-0.3,0.6-0.5c-4.7-5-7-9.9-7-14.8c0-4.8,1.6-8.7,4.7-11.7c3.2-3,7.3-4.5,12.3-4.5
			c4.9,0,8.9,1.5,12.1,4.4c3.2,2.9,4.8,6.6,4.8,11c0,3.1-0.9,5.8-2.6,8.3c-1.7,2.5-4.8,5.5-9.3,8.9l12.8,15.5l0.4-0.5
			c1.4-1.5,2.7-3,3.9-4.4c0.9-1,1.1-1.3,1.7-2.1c0.3-0.3,1.3-1.3,2.4-0.9c1.1,0.4,5.7,2.6,6.5,2.9c0.8,0.4,0.9,1.5,0.5,2.2
			c-1.2,1.6-2.9,3.8-3.9,5c-1.4,1.6-3.1,3.5-5,5.6c0,0,9.5,11.7,10.6,13.1C546.8,129.6,545.7,130.8,543.9,130.8z M577.8,67.9
			c0,1.6-1.2,2.9-2.8,2.9h-8.2v105.8c0,1.6-1.3,3.2-2.9,3.2h-5.8c-1.6,0-3.3-1.5-3.3-3.2V70.8h-7.7c-1.6,0-3.3-1.3-3.3-2.9v-5.8
			c0-1.4,1.7-3.3,3.3-3.3h27.9c1.6,0,2.8,1.9,2.8,3.3V67.9z M622.8,67.9c0,1.6-1,2.9-2.6,2.9h-15.4v43h15.4c1.6,0,2.6,1.1,2.6,2.8
			v5.8c0,1.4-1,2.4-2.6,2.4h-15.4v43h15.4c1.6,0,2.6,1.6,2.6,3.1v5.8c0,1.6-1,3.2-2.6,3.2h-21.5c-3.3,0-5.9-2.8-5.9-6V65.1
			c0-3.1,2.6-6.2,5.9-6.2h21.5c1.6,0,2.6,1.9,2.6,3.3V67.9z M681.8,86.2c0,1.6-1.5,2.6-3.2,2.6h-5.8c-1.6,0-3-1-3-2.6v-6.2
			c0-5.1-3.9-9.2-9-9.2c-5.1,0-9,4.2-9,9.2v78.7c0,5.1,3.9,9.2,9,9.2c5.1,0,9-4.2,9-9.2v-6.7c0-1.6,1.4-3.2,3-3.2h5.8
			c1.6,0,3.2,1.6,3.2,3.2v6.7c0,11.4-9.6,20.8-21,20.8c-11.6,0-21-9.4-21-20.8V80.1c0-11.4,9.4-20.8,21-20.8c11.4,0,21,9.4,21,20.8
			V86.2z M737.8,176.7c0,1.6-0.9,3.2-2.5,3.2h-5.6c-1.6,0-2.9-1.5-2.9-3.2v-51.8h-19v51.8c0,1.6-0.9,3.2-2.6,3.2h-5.8
			c-1.6,0-2.6-1.5-2.6-3.2V62.3c0-0.2,0-0.2,0-0.2c0-1.4,1-3.3,2.6-3.3h5.8c1.6,0,2.6,1.9,2.6,3.3v51.7h19V62.2
			c0-1.4,1.2-3.3,2.9-3.3h5.6c1.6,0,2.5,1.9,2.5,3.3V176.7z"/>
	</g>
	<g>
		<path fill="#FFFFFF" d="M790.3,226.9H9.3V10.1h781V226.9z M19.3,216.8h760.9V20.1H19.3V216.8z"/>
	</g>
</g>
</svg>
