<?xml version="1.0" encoding="utf-8"?>
<!-- Generator: Adobe Illustrator 19.2.1, SVG Export Plug-In . SVG Version: 6.00 Build 0)  -->
<!DOCTYPE svg PUBLIC "-//W3C//DTD SVG 1.1//EN" "http://www.w3.org/Graphics/SVG/1.1/DTD/svg11.dtd">
<svg version="1.1" id="Layer_1" xmlns="http://www.w3.org/2000/svg" xmlns:xlink="http://www.w3.org/1999/xlink" x="0px" y="0px"
	 viewBox="0 0 238.5 237.7" enable-background="new 0 0 238.5 237.7" xml:space="preserve">
<g id="Logomark_-_block">
	<path fill="#FFFFFF" d="M193.7,112.6c0.3,0.3,0.8,0.1,1.2,0.1h0c0,0,0.1,0.4,0.1,0.4c0.6,0,1.1-0.1,1.5-0.5l7.2-8.4
		c0.3-0.4,0.5-0.9,0.5-1.4c0-0.5-0.3-1-0.7-1.3c-0.4-0.3-0.9-0.5-1.5-0.5c-0.5,0-1,0.3-1.4,0.7l-7.2,8.5c-0.3,0.4-0.5,0.8-0.5,1.3
		C193,112,193.3,112.2,193.7,112.6z"/>
	<path fill="#FFFFFF" d="M173.2,68.3c1.3-1.5,1.9-3.4,1.9-5.7c0-2.5-0.9-4.6-2.6-6.2c-1.7-1.6-4-2.4-6.9-2.4c-2.6,0-4.8,0.8-6.6,2.4
		c-1.8,1.5-2.7,3.5-2.7,5.9c0,2.8,1.1,5.6,3.4,8.4l3.6,4.4c0.1,0.2,0.4,0.5,0.8,0.9l1.2-0.9c2-1.5,3.7-2.9,5.1-4
		C171.7,70.1,172.7,69.1,173.2,68.3z"/>
	<path fill="#FFFFFF" d="M60.3,140.9c-4.1,4.8-6.6,11-6.6,16.3c0,7.6,1.8,13.4,7.9,19.8c6.4,6.1,17.3,12.8,27.8,12.8
		c10.7,0,24.7-2,38.7-16.1l-44.6-51.8C72.2,129.8,64.4,136.1,60.3,140.9z"/>
	<path fill="#FFFFFF" d="M180.8,123.8c-8.7,10.6-27.5,32.6-41.3,47l-51.8-59.7c2.1-1.4,4.3-2.9,6.5-4.3l1.1-0.7c4.4-2.9,9-6,13.5-9
		c22.9-15.6,13.5-34.1,10-39.4c-5.1-7.8-16-13.1-27-13.1c-9.4,0-18.8,3.9-24.1,10c-10.3,11.8-8.3,28.2-1,38.3l15.1,17.4
		c-10.2,6.9-20.4,14-26.5,19.7c-5.8,5.4-12.7,16.2-12.9,28.7C42,168.9,46,178.1,54,186.2c6.9,7,20.6,14.1,35.7,14.1c0.5,0,1,0,1.6,0
		c18.7-0.6,30.4-8.1,38.4-14.5c2.4-1.9,5.6-5,9.7-9l16.8,19.3c0.7,0.8,2,0.9,2.8,0.2c0.8-0.7,0.9-2,0.2-2.8l-17-19.6
		c13.8-14.4,32.4-36.2,41.7-47.5c0.7-0.8,0.6-2.1-0.3-2.8C182.7,122.8,181.5,123,180.8,123.8z M69.7,90.5c-6.3-8.8-8-23,0.9-33.2
		c4.7-5.4,12.6-8.6,21.1-8.6c9.8,0,19.3,4.5,23.7,11.3c11.7,17.9-3.9,30.5-8.9,33.9c-4.3,2.9-8.7,5.8-13.1,8.8l-0.7,0.5
		c-2.6,1.7-5.1,3.4-7.6,5.1L69.7,90.5z M127.1,182.7c-7.6,6-18.5,13.1-36,13.6c-14.4,0.5-27.6-6.1-34.3-12.9
		c-7.2-7.3-10.8-15.6-10.6-24.6c0.2-11.3,6.4-21,11.7-25.9c5.9-5.5,16.1-12.6,26.4-19.5l52.4,60.3
		C132.6,177.9,129.4,180.9,127.1,182.7z"/>
	<path fill="#FFFFFF" d="M166.2,85.4l4.1-3l5.9-4.6c10-7.7,9.9-18,5.5-24.8c-2.8-4.3-8-6.8-14.8-7c-6.3-0.2-11.8,2.7-14.5,5.7
		c-6.7,7.5-4.4,18.6,0.1,23.1l8,9.7c-5.5,4-11,8.1-14.7,10.8c-4,3-8.6,9.7-9.4,17.3c-0.6,6.1,1.5,11,6.4,16.4
		c4.9,5.4,12.5,7.6,17.5,7.6h0c1.1,0,2-0.4,2-1.5c0-0.6-0.2-0.9-0.6-1.3c-0.4-0.4-0.9-0.4-1.4-0.4c-4.1,0.1-10.6-2.3-14.6-6.7
		c-4.1-4.5-5.8-8.8-5.3-13.8c0.6-6.8,5-12.3,7.8-14.4c3.6-2.7,9.2-6.8,14.8-10.9l40.1,48.5c0.3,0.4,0.8,0.7,1.4,0.7
		c0.5,0.1,1.1-0.1,1.5-0.4c0.8-0.7,1-2,0.3-2.8L166.2,85.4z M155.3,72.3c-3.5-3.5-5.3-12-0.1-17.8c2-2.2,6.1-4.4,11-4.4
		c0.2,0,0.3,0,0.5,0c5.5,0.2,9.5,2,11.6,5.2c4.8,7.4,1.2,15-4.5,19.4l-5.8,4.5l-4.2,3.1L155.3,72.3z"/>
	<path fill="#FFFFFF" d="M86.4,100.1l3.5-2.2c4.6-2.9,6.6-4.4,10.3-7c3.2-2.2,5.5-4.1,6.8-5.9c2.8-3.4,5.7-6.3,5.7-11.3
		c0-5.6-1.9-10.2-5.7-13.7c-3.8-3.5-8.9-5.3-15.2-5.3c-5.8,0-10.7,1.8-14.7,5.4c-4,3.4-5.9,7.8-5.9,13.1c0,6.3,2.5,10.7,7.5,16.8
		l6.5,8.2C85.4,98.8,85.6,99.2,86.4,100.1z"/>
	<path fill="#FFFFFF" d="M11.1,9.7v219h219V9.7H11.1z M211.1,139.7c-2.3,0-7.5,0-10,0c-1.4,0-3-0.7-4.5-2.5
		c-0.7-0.9-5.4-6.2-7.1-8.2c-7,8.5-24.9,29.5-27.5,32.6c-3.1,3.6-6.8,7.9-11.1,12.7c0,0,16.2,18.1,18.7,21.4
		c2.9,3.8,0.3,7.1-3.5,7.1s-7,0-11.1,0c-2.3,0-5-1.9-7.3-4.7c-1.5-1.8-8.8-11.5-8.8-11.5c-14.5,15-31.8,20.6-47.5,20.6
		c-14,0-34.5-7.3-43.1-17c-8.7-9.9-13.2-18.3-13.2-31.5c0-15.8,8.7-30.8,23.9-41.2l9.5-6.7c0.1-0.1,2.4-1.6,3-2
		C61.2,97.5,54.2,86.5,54.2,75.7c0-10.7,3.5-19.3,10.5-26c7.1-6.7,16.3-10,27.5-10c10.9,0,19.8,3.2,27,9.7
		c7.1,6.5,10.7,14.7,10.7,24.6c0,6.8-1.9,13-5.8,18.6c-3.8,5.5-14.5,12.2-24.5,19.9l41.3,48.7c0,0,12.3-14,16.7-19.3
		c-6.9-0.7-12.8-3.4-17.8-8c-5.8-5.5-8.8-12.3-8.8-20.4c0-9.6,4.6-17.7,13.9-24l6.3-4.3c0.1,0,0.2-0.1,0.4-0.3
		c0.2-0.2,0.5-0.4,0.9-0.7c-6.4-6.8-9.6-13.5-9.6-20.1c0-6.5,2.1-11.8,6.4-15.9c4.3-4.1,9.9-6.1,16.8-6.1c6.6,0,12.1,2,16.5,5.9
		c4.3,4,6.5,9,6.5,15c0,4.2-1.2,7.9-3.6,11.3c-2.3,3.4-6.6,7.4-12.7,12.1l17.4,21l0.6-0.6c1.9-2,3.6-4.1,5.3-6
		c1.2-1.4,1.5-1.8,2.4-2.9c0.3-0.4,1.8-1.8,3.2-1.2c1.4,0.6,7.7,3.5,8.9,4c1.1,0.5,1.2,2.1,0.6,2.9c-1.6,2.2-4,5.2-5.4,6.8
		c-1.9,2.2-4.2,4.8-6.8,7.6c0,0,12.9,15.7,14.5,17.7C215,138.1,213.4,139.7,211.1,139.7z"/>
	<path fill="#FFFFFF" d="M160.2,95.2c-6,4.1-10,7.4-12.2,9.9c-2.1,2.5-3.2,5.1-3.2,7.9c0,4,1.6,7.7,4.8,11c3.3,3.2,7,4.8,11,4.8
		c5.6,0,12.1-3.7,19.5-11.1L161,94.6L160.2,95.2z"/>
</g>
</svg>
