<?xml version="1.0" encoding="utf-8"?>
<!-- Generator: Adobe Illustrator 19.2.1, SVG Export Plug-In . SVG Version: 6.00 Build 0)  -->
<!DOCTYPE svg PUBLIC "-//W3C//DTD SVG 1.1//EN" "http://www.w3.org/Graphics/SVG/1.1/DTD/svg11.dtd">
<svg version="1.1" id="Layer_1" xmlns="http://www.w3.org/2000/svg" xmlns:xlink="http://www.w3.org/1999/xlink" x="0px" y="0px"
	 viewBox="0 0 238.5 237.7" enable-background="new 0 0 238.5 237.7" xml:space="preserve">
<g id="Logomark_-_cutout">
	<path fill="#FFFFFF" d="M94,98.6l0.7-0.5c4.4-2.9,8.8-5.9,13.1-8.8c5-3.4,20.6-16,8.9-33.9c-4.4-6.7-13.9-11.3-23.7-11.3
		c-8.5,0-16.4,3.2-21.1,8.6C63.1,63,64.8,77.2,71.1,86l15.3,17.6C88.9,102,91.5,100.3,94,98.6z M72.6,68.9c0-5.3,2-9.7,5.9-13.1
		c4-3.6,8.9-5.4,14.7-5.4c6.4,0,11.4,1.8,15.2,5.3c3.8,3.5,5.7,8.1,5.7,13.7c0,5-2.9,7.9-5.7,11.3c-1.3,1.8-3.6,3.6-6.8,5.9
		c-3.7,2.6-5.6,4.1-10.3,7l-3.5,2.2c-0.8-0.9-1-1.3-1.3-1.8l-6.5-8.2C75.1,79.6,72.6,75.1,72.6,68.9z"/>
	<path fill="#FFFFFF" d="M59.3,128.5c-5.2,4.9-11.4,14.6-11.7,25.9c-0.2,9,3.4,17.3,10.6,24.6c6.7,6.8,19.8,13.4,34.3,12.9
		c17.5-0.6,28.5-7.6,36-13.6c2.3-1.8,5.5-4.8,9.5-9l-52.4-60.3C75.5,115.8,65.3,122.9,59.3,128.5z M90.9,185.3
		c-10.5,0-21.5-6.7-27.8-12.8c-6.1-6.4-7.9-12.2-7.9-19.8c0-5.3,2.5-11.6,6.6-16.3c4.1-4.8,11.9-11.1,23.3-19l44.6,51.8
		C115.5,183.3,101.6,185.3,90.9,185.3z"/>
	<path fill="#FFFFFF" d="M214.7,131c-1.5-2-14.5-17.7-14.5-17.7c2.6-2.9,4.9-5.3,6.8-7.5c1.4-1.6,3.7-4.6,5.4-6.8
		c0.6-0.8,0.5-2.4-0.6-2.9c-1.1-0.5-7.4-3.4-8.9-4c-1.4-0.6-2.9,0.8-3.2,1.2c-0.9,1.1-1.2,1.5-2.4,2.9c-1.7,2-3.4,4-5.3,6l-0.6,0.6
		l-17.4-21c6.1-4.7,10.4-8.8,12.7-12.1c2.4-3.4,3.6-7.2,3.6-11.3c0-6-2.2-11.1-6.5-15c-4.3-4-9.8-5.9-16.5-5.9
		c-6.8,0-12.4,2-16.8,6.1c-4.3,4.1-6.4,9.4-6.4,15.9c0,6.6,3.2,13.3,9.6,20.1c-0.4,0.3-0.7,0.5-0.9,0.7c-0.2,0.2-0.4,0.3-0.4,0.3
		l-6.3,4.3c-9.3,6.4-13.9,14.4-13.9,24c0,8.1,2.9,14.9,8.8,20.4c5,4.6,11,7.2,17.8,8c-4.4,5.3-16.7,19.3-16.7,19.3l-41.3-48.7
		c10-7.7,20.7-14.3,24.5-19.9c3.9-5.5,5.8-11.7,5.8-18.6c0-9.9-3.6-18.1-10.7-24.6c-7.1-6.5-16.1-9.7-27-9.7
		c-11.2,0-20.4,3.3-27.5,10c-7,6.7-10.5,15.4-10.5,26c0,10.8,7,21.8,17.4,32.9c-0.6,0.5-2.9,2-3,2l-9.5,6.7
		c-15.2,10.5-23.9,25.4-23.9,41.2c0,13.3,4.5,21.7,13.2,31.6c8.5,9.7,29.1,17,43.1,17c15.6,0,33-5.5,47.5-20.5c0,0,7.3,9.4,8.8,11.1
		c2.4,2.8,5,4.5,7.3,4.5c4.1,0,7.3,0,11.1,0s6.4-3,3.5-6.8c-2.5-3.3-18.7-21.4-18.7-21.4c4.3-4.7,8-8.9,11.1-12.5
		c2.6-3,20.4-23.9,27.5-32.4c1.7,2,6.3,7,7.1,7.9c1.4,1.7,3,2.3,4.5,2.3c2.5,0,7.7,0,10,0C214.8,134.7,216.4,133.3,214.7,131z
		 M194.9,105.6l7.2-8.4c0.3-0.4,0.8-0.7,1.4-0.7c0.5,0,1,0.1,1.5,0.5c0.4,0.3,0.7,0.8,0.7,1.3c0,0.5-0.1,1-0.5,1.4l-7.2,8.4
		c-0.4,0.5-0.9,0.2-1.5,0.2c0,0-0.1-0.6-0.1-0.6h0c-0.4,0-0.9,0.4-1.2,0.1c-0.4-0.3-0.7-0.5-0.7-1
		C194.4,106.3,194.5,106,194.9,105.6z M185.3,121.8c-9.3,11.3-28,33.2-41.7,47.5l17,19.6c0.7,0.8,0.6,2.1-0.2,2.8
		c-0.8,0.7-2.1,0.6-2.8-0.2l-16.8-19.3c-4,4.1-7.3,7.1-9.7,9c-8,6.4-19.7,13.9-38.4,14.5c-0.5,0-1,0-1.6,0c-15,0-28.8-7.1-35.7-14.1
		c-8-8.1-12-17.4-11.8-27.5c0.3-12.5,7.1-23.3,12.9-28.7c6.1-5.7,16.2-12.8,26.5-19.7L67.9,88.5c-7.3-10.1-9.3-26.5,1-38.3
		c5.3-6.1,14.7-10,24.1-10c11.1,0,21.9,5.3,27,13.1c3.5,5.3,12.9,23.8-10,39.4c-4.4,3-9,6.1-13.5,9l-1.1,0.7
		c-2.2,1.5-4.4,2.9-6.5,4.3l51.8,59.7c13.8-14.4,32.6-36.4,41.3-47c0.7-0.8,2-1,2.8-0.3C185.8,119.7,186,121,185.3,121.8z
		 M207.3,132.1c-0.4,0.3-0.9,0.5-1.5,0.4c-0.5,0-1-0.3-1.4-0.7l-40.1-48.5c-5.6,4.1-11.2,8.1-14.8,10.9c-2.8,2.1-7.1,7.6-7.8,14.4
		c-0.5,4.9,1.2,9.3,5.3,13.8c4,4.4,10.6,6.8,14.6,6.7c0.5,0,1,0.1,1.4,0.5c0.4,0.4,0.6,0.3,0.6,0.9c0,1.1-0.9,1.2-2,1.2h0
		c-5,0-12.6-1.9-17.5-7.3c-4.9-5.4-6.9-10.3-6.4-16.4c0.7-7.6,5.3-14.1,9.4-17.1c3.6-2.7,9.2-6.7,14.7-10.7l-8-9.7
		c-4.6-4.5-6.9-15.6-0.1-23.1c2.7-3,8.2-6,14.5-5.7c6.9,0.3,12,2.7,14.8,7c4.4,6.8,4.5,17.1-5.5,24.8l-5.9,4.6l-4.1,3l39.9,48.3
		C208.2,130.1,208.1,131.4,207.3,132.1z M181.5,113.3c-7.3,7.4-13.8,11.1-19.5,11.1c-4,0-7.7-1.6-11-4.8c-3.2-3.3-4.8-7-4.8-11
		c0-2.8,1.1-5.4,3.2-7.9c2.2-2.5,6.2-5.8,12.2-9.9l0.8-0.6L181.5,113.3z"/>
	<path fill="#FFFFFF" d="M175.1,70.2c5.7-4.4,9.3-12.1,4.5-19.4c-2.1-3.2-6.1-5-11.6-5.2c-0.2,0-0.3,0-0.5,0c-4.8,0-9,2.2-11,4.4
		c-5.2,5.8-3.4,14.3,0.1,17.8l8.3,10.1l4.2-3.1L175.1,70.2z M165.5,71.6c-0.4-0.4-0.6-0.7-0.8-0.9l-3.6-4.4
		c-2.3-2.8-3.4-5.5-3.4-8.4c0-2.4,0.9-4.4,2.7-5.9c1.8-1.6,4-2.4,6.6-2.4c2.9,0,5.2,0.8,6.9,2.4c1.7,1.6,2.6,3.7,2.6,6.2
		c0,2.3-0.6,4.2-1.9,5.7c-0.6,0.8-1.5,1.8-2.9,2.9c-1.3,1.1-3,2.5-5.1,4L165.5,71.6z"/>
</g>
</svg>
